<?xml version="1.0" standalone="no"?>
<!DOCTYPE svg PUBLIC "-//W3C//DTD SVG 20010904//EN"
 "http://www.w3.org/TR/2001/REC-SVG-20010904/DTD/svg10.dtd">
<svg version="1.0" xmlns="http://www.w3.org/2000/svg"
 width="546.000000pt" height="546.000000pt" viewBox="0 0 546.000000 546.000000"
 preserveAspectRatio="xMidYMid meet">
<metadata>
Created by potrace 1.11, written by Peter Selinger 2001-2013
</metadata>
<g transform="translate(0.000000,546.000000) scale(0.100000,-0.100000)"
fill="#000000" stroke="none">
<path d="M2420 5435 c-143 -18 -293 -48 -425 -85 -99 -28 -113 -36 -661 -379
l-559 -349 -80 -92 c-343 -395 -558 -847 -646 -1360 -27 -159 -38 -553 -19
-723 98 -916 637 -1707 1451 -2131 273 -142 607 -249 882 -282 l57 -6 0 1410
0 1410 79 102 c43 56 116 143 162 194 l84 93 3 -1613 2 -1614 58 0 c165 0 455
43 647 95 753 207 1380 726 1725 1430 138 282 214 532 256 845 21 153 24 519
6 665 -78 611 -330 1142 -746 1572 -155 161 -275 261 -458 383 -331 220 -696
360 -1108 425 -148 24 -557 29 -710 10z m1449 -1345 c-431 -93 -821 -321
-1191 -696 -258 -262 -397 -448 -749 -1007 -41 -65 -82 -123 -91 -128 -14 -8
-61 57 -310 428 l-293 436 -5 -913 -5 -913 -162 244 -163 244 0 948 0 947 177
-2 177 -3 270 -422 c149 -233 273 -423 276 -422 3 0 37 41 75 92 98 127 408
435 545 541 429 332 884 540 1366 625 140 25 195 25 83 1z m233 -419 c137 -36
292 -110 377 -180 l33 -27 -87 -122 c-48 -67 -89 -122 -92 -122 -2 0 -23 13
-46 28 -268 181 -565 214 -705 79 -49 -46 -62 -78 -62 -147 0 -68 16 -115 51
-147 43 -39 147 -83 282 -119 233 -63 330 -94 423 -139 201 -97 294 -237 294
-444 0 -272 -158 -467 -439 -543 -100 -27 -347 -29 -461 -4 -203 45 -383 131
-510 244 l-42 37 97 117 97 117 71 -55 c94 -72 253 -151 342 -169 100 -21 276
-19 342 4 119 41 166 98 171 207 4 62 1 79 -19 114 -45 79 -124 116 -409 190
-294 76 -414 131 -507 232 -80 88 -113 181 -113 323 0 164 42 267 152 377 77
77 189 137 303 162 101 22 352 15 457 -13z"/>
</g>
</svg>
