<?xml version="1.0" standalone="no"?>
<!DOCTYPE svg PUBLIC "-//W3C//DTD SVG 20010904//EN"
 "http://www.w3.org/TR/2001/REC-SVG-20010904/DTD/svg10.dtd">
<svg version="1.0" xmlns="http://www.w3.org/2000/svg"
 width="2831.000000pt" height="2831.000000pt" viewBox="0 0 2831.000000 2831.000000"
 preserveAspectRatio="xMidYMid meet">
<metadata>
Created by potrace 1.11, written by Peter Selinger 2001-2013
</metadata>
<g transform="translate(0.000000,2831.000000) scale(0.100000,-0.100000)"
fill="#000000" stroke="none">
<path d="M8030 25273 c-101 -230 -196 -445 -211 -478 -15 -33 -43 -98 -64
-145 -20 -47 -43 -98 -50 -115 -8 -16 -51 -113 -95 -215 -45 -102 -88 -198
-95 -215 -20 -43 -162 -367 -200 -455 -18 -41 -42 -95 -53 -120 -22 -48 -235
-529 -382 -865 -201 -458 -282 -642 -295 -670 -7 -16 -57 -129 -110 -250 -54
-121 -107 -242 -120 -270 -12 -27 -46 -104 -75 -170 -68 -157 -73 -168 -110
-250 -18 -38 -43 -96 -56 -128 -14 -32 -38 -87 -54 -123 -17 -35 -30 -66 -30
-69 0 -2 -15 -37 -34 -77 -18 -40 -40 -89 -49 -108 -18 -40 -158 -359 -319
-725 -61 -137 -121 -274 -134 -303 -13 -29 -35 -79 -49 -112 -14 -33 -36 -83
-49 -112 -40 -88 -258 -581 -266 -603 -4 -11 -24 -55 -44 -98 -20 -43 -36 -80
-36 -82 0 -2 -14 -34 -31 -72 -41 -91 -50 -112 -99 -223 -23 -52 -50 -113 -60
-135 -10 -22 -102 -231 -205 -465 -103 -234 -200 -453 -216 -488 -16 -35 -29
-66 -29 -68 0 -3 -11 -29 -24 -57 -62 -135 -103 -229 -236 -532 -48 -110 -97
-220 -108 -245 -11 -25 -96 -216 -187 -425 -92 -209 -175 -398 -185 -420 -10
-22 -27 -60 -38 -85 -11 -25 -45 -103 -77 -175 -31 -71 -66 -150 -77 -175 -11
-25 -70 -157 -130 -293 -60 -137 -117 -267 -128 -290 -10 -23 -41 -93 -68
-155 -27 -63 -52 -109 -55 -104 -4 5 -9 24 -12 43 -3 19 -19 93 -35 164 -23
107 -60 282 -85 415 -6 31 -40 240 -55 335 -17 108 -18 116 -25 175 -4 30 -9
62 -10 70 -2 8 -6 42 -9 75 -4 33 -9 78 -12 101 -7 47 -9 66 -19 189 -4 50 -9
101 -11 115 -2 14 -6 68 -10 120 -3 52 -7 113 -9 135 -10 101 -19 413 -20 640
0 138 -3 252 -7 255 -4 4 -2389 4 -2736 0 l-44 0 6 -412 c4 -227 8 -431 10
-453 2 -22 7 -94 11 -160 11 -192 21 -340 30 -420 2 -22 7 -69 10 -105 6 -63
9 -90 19 -175 3 -22 8 -67 11 -100 2 -33 9 -94 15 -135 5 -41 12 -95 15 -120
8 -62 35 -250 40 -280 2 -14 11 -68 20 -120 9 -52 18 -108 21 -125 22 -129 84
-438 125 -625 27 -124 52 -236 55 -249 6 -30 75 -299 104 -406 114 -428 293
-970 460 -1400 120 -307 234 -573 405 -939 301 -647 792 -1492 1194 -2056 33
-47 66 -93 73 -104 13 -19 231 -314 278 -377 169 -223 587 -724 750 -899 192
-206 283 -300 476 -494 126 -127 264 -262 305 -301 75 -71 261 -241 308 -283
14 -13 37 -33 51 -46 21 -19 277 -238 348 -297 222 -187 631 -498 912 -694
342 -239 922 -604 1171 -737 35 -19 75 -41 89 -50 99 -63 785 -408 1010 -507
80 -35 172 -76 205 -91 33 -15 134 -58 225 -95 91 -37 179 -73 195 -80 88 -37
515 -195 580 -214 22 -7 49 -16 60 -21 11 -4 65 -23 120 -40 55 -18 109 -36
120 -40 11 -5 83 -27 160 -50 77 -23 151 -45 165 -50 21 -8 389 -108 495 -135
17 -5 35 -9 40 -11 6 -1 42 -10 80 -19 39 -9 77 -19 85 -21 41 -9 461 -104
481 -108 13 -2 42 -7 64 -11 22 -4 49 -9 60 -11 35 -7 189 -36 210 -40 19 -4
73 -14 107 -20 9 -1 38 -6 65 -10 26 -3 57 -8 68 -10 21 -4 346 -51 405 -59
19 -2 76 -9 125 -15 50 -6 101 -13 115 -15 14 -2 59 -6 100 -10 41 -4 86 -8
100 -10 25 -3 150 -15 225 -20 22 -2 81 -6 130 -10 50 -3 110 -8 135 -10 242
-21 1369 -29 1640 -12 260 16 413 27 460 32 19 2 71 7 115 10 44 3 91 8 105
10 14 2 57 6 95 10 95 9 145 14 260 30 22 2 60 7 85 10 25 3 56 7 70 10 14 2
46 7 72 10 54 6 112 14 148 20 14 3 43 7 65 10 37 6 116 19 175 30 14 2 41 7
60 9 19 3 60 10 90 16 30 6 69 13 85 16 24 4 203 40 295 59 40 8 177 37 190
40 135 30 213 48 300 71 58 14 112 28 120 29 266 60 932 267 1340 416 170 62
518 197 565 219 11 5 88 38 170 74 360 155 644 290 980 466 169 88 490 267
553 306 29 19 54 34 56 34 8 0 338 203 509 314 489 316 1060 739 1447 1072 14
12 48 41 75 64 42 36 159 138 199 175 6 6 34 30 61 54 227 202 656 622 892
876 141 151 320 353 448 505 44 52 82 97 85 100 3 3 32 39 65 80 33 41 62 77
65 80 8 8 180 227 251 320 238 312 505 699 750 1087 50 79 279 463 279 468 0
2 23 42 50 90 28 48 50 88 50 89 0 1 26 50 59 108 147 264 414 820 563 1173
48 116 97 229 108 253 11 23 20 47 20 53 0 5 9 29 19 52 98 216 400 1115 466
1387 2 8 13 49 25 90 30 104 146 576 165 665 31 155 105 528 109 555 3 19 10
58 15 87 6 29 13 74 17 100 6 46 8 58 18 113 6 28 12 70 21 145 7 57 13 99 20
135 2 14 7 48 10 75 3 28 10 84 15 125 12 97 19 163 25 225 6 69 14 142 20
190 2 22 7 78 10 125 3 47 8 112 10 145 5 62 11 148 21 315 3 52 8 272 10 488
l5 392 -28 1 c-243 4 -2744 -1 -2752 -6 -6 -3 -9 -11 -5 -16 6 -10 6 -389 0
-539 -6 -126 -17 -349 -21 -400 -2 -25 -6 -83 -10 -130 -3 -47 -8 -101 -10
-120 -2 -19 -7 -64 -10 -100 -11 -129 -57 -479 -86 -660 -25 -155 -25 -159
-44 -250 -2 -14 -7 -41 -10 -60 -3 -19 -10 -55 -15 -80 -5 -25 -12 -56 -14
-70 -2 -14 -14 -70 -26 -125 -12 -55 -23 -104 -24 -110 -22 -111 -41 -174 -48
-167 -5 5 -38 74 -72 153 -35 79 -97 221 -138 314 -41 94 -150 339 -240 545
-91 206 -218 492 -281 635 -63 143 -140 319 -172 390 -31 72 -66 150 -77 175
-11 25 -51 115 -88 200 -55 126 -204 463 -585 1325 -7 17 -72 165 -145 330
-73 165 -140 318 -150 340 -10 22 -87 195 -170 385 -84 190 -210 478 -282 640
-72 162 -134 304 -138 315 -4 11 -26 60 -49 108 -23 49 -41 90 -41 92 0 3
-112 259 -145 330 -7 17 -32 73 -55 125 -23 52 -50 113 -60 135 -10 22 -41 94
-70 160 -29 66 -61 139 -71 162 -11 24 -53 118 -93 210 -40 93 -83 188 -94
213 -11 25 -37 83 -57 130 -21 47 -46 104 -57 127 -10 24 -52 118 -92 210
-109 249 -185 421 -213 483 -14 30 -29 64 -33 75 -7 17 -92 210 -355 805 -18
41 -68 154 -110 250 -42 96 -83 189 -90 205 -47 103 -225 508 -265 600 -63
145 -507 1151 -525 1190 -8 17 -26 57 -40 90 -57 133 -62 142 -70 120 -4 -11
-23 -53 -41 -93 -19 -41 -34 -75 -34 -77 0 -2 -15 -36 -34 -77 -18 -40 -45
-101 -60 -135 -14 -35 -37 -87 -50 -115 -14 -29 -50 -111 -81 -183 -32 -71
-66 -150 -77 -174 -11 -23 -61 -138 -113 -255 -153 -347 -206 -467 -241 -544
-19 -41 -34 -75 -34 -78 0 -2 -16 -38 -35 -80 -19 -41 -35 -77 -35 -79 0 -2
-13 -32 -29 -67 -16 -35 -60 -135 -99 -223 -38 -88 -84 -190 -101 -228 -17
-37 -31 -69 -31 -71 0 -2 -16 -39 -36 -83 -42 -91 -33 -72 -163 -368 -56 -126
-107 -243 -115 -260 -8 -16 -21 -46 -29 -65 -14 -32 -231 -525 -262 -595 -7
-16 -26 -59 -43 -95 -16 -36 -53 -119 -82 -185 -29 -66 -63 -142 -75 -170 -13
-27 -63 -142 -113 -255 -49 -113 -99 -225 -110 -250 -11 -25 -64 -144 -117
-265 -100 -225 -121 -273 -154 -347 -11 -24 -45 -101 -76 -173 -31 -71 -63
-143 -70 -160 -22 -49 -58 -129 -140 -315 -42 -96 -87 -197 -100 -225 -12 -27
-62 -140 -110 -250 -48 -110 -99 -225 -112 -255 -14 -30 -49 -109 -78 -175
-29 -66 -61 -140 -72 -165 -27 -59 -143 -321 -287 -650 -65 -146 -123 -278
-131 -295 -33 -73 -185 -418 -185 -420 0 -2 -15 -36 -34 -77 -66 -144 -86
-189 -86 -193 0 -2 -14 -35 -31 -72 -34 -75 -163 -364 -214 -483 -18 -41 -44
-100 -58 -130 -14 -30 -57 -129 -97 -220 -40 -91 -87 -198 -106 -238 -19 -41
-34 -76 -34 -79 0 -2 -12 -30 -26 -61 -14 -31 -32 -70 -39 -87 -7 -16 -26 -59
-43 -95 -16 -36 -52 -117 -80 -180 -27 -63 -103 -234 -167 -380 -166 -376
-292 -662 -402 -910 -52 -118 -104 -237 -117 -265 -13 -27 -36 -79 -51 -115
-15 -36 -38 -87 -51 -115 -12 -27 -75 -169 -139 -315 -64 -146 -129 -292 -144
-325 -15 -33 -78 -178 -141 -322 -102 -232 -130 -287 -130 -254 0 5 -13 38
-29 73 -16 35 -70 158 -121 273 -51 116 -106 239 -122 275 -16 36 -41 92 -55
125 -14 33 -33 78 -43 100 -10 22 -55 123 -100 225 -45 102 -92 208 -105 235
-12 28 -37 84 -55 125 -18 41 -38 89 -45 105 -8 17 -50 113 -95 215 -45 102
-88 199 -95 215 -7 17 -32 73 -55 125 -23 52 -51 115 -62 140 -11 25 -26 59
-34 75 -7 17 -65 149 -130 295 -64 146 -124 283 -134 305 -10 22 -44 99 -75
170 -88 201 -165 376 -185 420 -10 22 -53 119 -95 215 -42 96 -87 198 -99 225
-13 28 -29 66 -36 85 -7 19 -17 40 -21 45 -4 6 -26 55 -49 109 -23 55 -52 122
-65 150 -13 28 -51 114 -85 191 -34 77 -70 158 -80 180 -10 22 -33 74 -50 115
-18 41 -43 98 -55 125 -13 28 -55 124 -95 215 -40 91 -80 183 -90 205 -10 22
-77 175 -150 340 -73 165 -147 333 -166 373 -19 41 -34 76 -34 78 0 4 -226
517 -266 602 -13 29 -24 55 -24 57 0 3 -13 33 -29 67 -32 68 -194 434 -271
613 -26 61 -59 135 -73 165 -32 71 -60 134 -61 140 -1 3 -14 31 -29 64 -15 32
-27 60 -27 62 0 2 -13 32 -29 66 -15 35 -70 158 -120 273 -51 116 -102 230
-113 255 -11 25 -60 135 -108 245 -48 110 -140 319 -205 465 -64 146 -149 337
-187 425 -39 88 -81 183 -93 210 -12 28 -32 73 -44 100 -13 28 -29 64 -36 80
-7 17 -37 84 -65 150 -29 66 -65 147 -80 180 -15 33 -94 211 -175 395 -80 184
-156 355 -167 380 -11 25 -51 115 -88 200 -37 85 -76 175 -88 200 -21 47 -148
334 -302 685 -51 116 -100 228 -110 250 -19 40 -91 205 -262 595 -49 113 -98
223 -108 245 -10 22 -25 57 -33 78 -9 20 -17 37 -19 37 -2 0 -86 -188 -188
-417z m12130 -8468 c34 -77 74 -165 87 -195 14 -30 56 -122 93 -205 37 -82 82
-181 100 -220 18 -38 49 -108 70 -155 21 -47 61 -137 90 -200 28 -63 70 -155
92 -205 55 -121 94 -208 128 -280 15 -33 66 -145 113 -250 47 -104 130 -289
185 -410 54 -121 109 -242 122 -270 12 -27 33 -72 45 -100 28 -61 36 -78 242
-535 91 -201 205 -453 253 -560 189 -418 243 -537 262 -580 11 -25 34 -74 50
-110 17 -36 48 -104 69 -152 21 -48 52 -116 68 -150 16 -35 61 -135 101 -223
39 -88 92 -204 117 -259 24 -54 62 -137 82 -185 21 -47 52 -115 69 -151 17
-36 83 -182 147 -325 64 -143 128 -285 142 -315 14 -30 58 -127 98 -215 40
-88 87 -190 104 -228 17 -37 31 -70 31 -72 0 -3 18 -42 39 -87 21 -46 52 -112
68 -148 l30 -66 -26 -34 c-36 -48 -281 -359 -307 -390 -12 -14 -66 -77 -120
-140 -213 -249 -340 -386 -615 -660 -194 -194 -341 -334 -469 -446 -25 -21
-50 -44 -57 -50 -6 -6 -67 -58 -134 -115 -68 -57 -155 -131 -193 -164 -78 -67
-267 -217 -361 -286 -33 -24 -64 -48 -70 -52 -40 -33 -318 -227 -325 -227 -4
0 -10 -3 -12 -8 -9 -22 -651 -428 -768 -485 -8 -4 -24 -13 -35 -20 -31 -19
-172 -97 -260 -144 -157 -84 -686 -343 -702 -343 -2 0 -32 -13 -66 -29 -88
-42 -240 -105 -402 -168 -77 -29 -149 -58 -160 -63 -65 -31 -440 -158 -770
-260 -106 -33 -471 -132 -535 -145 -8 -2 -35 -8 -60 -14 -25 -7 -56 -14 -70
-17 -14 -3 -63 -14 -110 -24 -134 -30 -363 -77 -419 -86 -18 -3 -43 -8 -55
-10 -22 -5 -35 -7 -186 -30 -52 -8 -108 -17 -125 -20 -59 -10 -81 -13 -134
-19 -30 -4 -61 -8 -70 -10 -9 -1 -45 -6 -81 -9 -36 -4 -76 -9 -90 -11 -14 -3
-50 -7 -80 -10 -30 -3 -75 -7 -100 -10 -50 -5 -120 -12 -222 -20 l-68 -6 14
38 c8 21 24 61 37 88 13 28 24 52 24 55 0 3 10 25 22 50 11 25 57 128 103 230
45 102 90 203 100 225 10 22 76 173 148 335 71 162 183 414 247 560 64 146
125 283 135 305 40 89 225 505 255 575 18 41 112 255 210 475 97 220 217 492
267 605 50 113 103 233 119 268 16 35 29 65 29 67 0 2 15 36 34 77 18 40 66
147 106 238 40 91 87 198 106 238 19 41 34 76 34 78 0 2 16 39 36 81 20 43 40
87 44 98 10 25 193 439 227 515 14 30 58 129 98 220 40 91 125 284 190 430 64
146 151 342 192 435 41 94 84 190 95 215 11 25 80 180 153 345 73 165 145 327
160 360 31 69 34 76 110 250 32 72 66 148 76 170 10 22 70 159 134 305 65 146
131 294 147 330 16 36 41 92 55 125 14 33 38 88 53 122 16 34 59 131 96 215
36 84 78 178 91 208 14 30 52 116 85 190 33 74 71 159 84 188 13 29 35 79 49
112 14 33 36 83 49 112 13 29 58 132 101 228 42 96 87 198 100 225 23 51 57
126 60 135 1 3 9 21 18 41 9 20 78 176 152 345 141 319 154 349 199 447 14 32
26 60 26 62 0 3 17 42 39 87 21 46 71 158 111 250 41 93 74 167 75 165 1 -1
30 -65 65 -142z m-11926 103 c8 -18 107 -244 221 -503 114 -258 213 -483 220
-500 8 -16 142 -321 299 -676 156 -356 293 -666 304 -690 11 -24 120 -271 242
-549 122 -278 230 -523 241 -545 10 -22 104 -234 208 -471 104 -237 198 -451
209 -475 30 -65 200 -452 237 -539 18 -41 42 -95 53 -120 19 -42 119 -268 342
-775 51 -115 100 -228 110 -250 10 -22 46 -103 80 -180 34 -77 68 -153 75
-170 11 -23 260 -590 412 -935 8 -19 28 -63 44 -98 16 -35 29 -65 29 -67 0 -2
16 -38 35 -79 19 -42 35 -78 35 -81 0 -2 13 -32 29 -67 17 -35 63 -139 104
-233 91 -207 283 -642 380 -859 39 -88 70 -165 70 -172 0 -11 -126 -305 -199
-462 -19 -41 -34 -76 -34 -78 0 -3 -13 -33 -29 -67 -16 -34 -79 -177 -141
-317 -61 -140 -120 -273 -130 -295 -9 -22 -24 -56 -33 -75 -9 -19 -24 -55 -35
-80 -11 -25 -31 -70 -45 -100 -13 -30 -39 -89 -57 -130 -18 -41 -45 -103 -61
-137 -16 -34 -40 -90 -54 -123 -14 -34 -41 -93 -59 -133 -18 -40 -36 -80 -40
-91 -8 -24 -23 -21 -301 59 -413 120 -954 309 -1210 425 -11 4 -88 38 -172 74
-499 217 -1012 486 -1468 771 -181 114 -560 368 -630 422 -5 5 -35 26 -65 48
-70 50 -353 267 -360 275 -3 3 -14 13 -26 21 -66 45 -442 367 -624 534 -77 70
-562 555 -641 640 -35 39 -113 126 -173 195 -60 69 -112 127 -116 130 -21 18
-388 476 -437 545 l-21 31 62 139 c35 77 75 167 91 200 15 33 47 105 72 160
24 55 58 129 75 164 16 36 50 110 74 165 57 128 65 145 107 236 19 41 62 136
95 210 33 74 79 176 102 225 23 50 46 99 50 110 7 16 111 248 233 515 14 30
88 195 165 365 153 339 367 814 400 885 74 164 267 588 290 640 9 19 16 37 17
40 0 3 14 32 29 65 16 33 36 78 46 100 10 22 39 84 64 138 25 54 46 101 46
104 0 3 13 33 29 67 16 33 62 133 101 221 65 144 269 594 333 735 14 30 34 75
45 100 38 85 273 605 292 645 17 36 71 157 145 320 141 312 198 435 201 435 2
0 10 -15 18 -32z"/>
</g>
</svg>
