<?xml version="1.0" standalone="no"?>
<!DOCTYPE svg PUBLIC "-//W3C//DTD SVG 20010904//EN"
 "http://www.w3.org/TR/2001/REC-SVG-20010904/DTD/svg10.dtd">
<svg version="1.0" xmlns="http://www.w3.org/2000/svg"
 width="3572.000000pt" height="3572.000000pt" viewBox="0 0 3572.000000 3572.000000"
 preserveAspectRatio="xMidYMid meet">
<metadata>
Created by potrace 1.11, written by Peter Selinger 2001-2013
</metadata>
<g transform="translate(0.000000,3572.000000) scale(0.100000,-0.100000)"
fill="#000000" stroke="none">
<path d="M14267 32518 c-260 -392 -367 -556 -452 -688 -27 -41 -76 -118 -111
-171 -162 -251 -542 -853 -734 -1164 -180 -292 -556 -913 -600 -991 -10 -17
-38 -64 -62 -105 -48 -80 -227 -383 -274 -464 -16 -27 -34 -59 -41 -70 -7 -11
-15 -27 -19 -35 -5 -8 -23 -38 -41 -67 -18 -29 -33 -54 -33 -56 0 -3 -29 -54
-64 -115 -72 -124 -73 -126 -216 -377 -224 -394 -588 -1052 -770 -1390 -61
-114 -101 -188 -150 -280 -24 -44 -60 -111 -80 -150 -21 -38 -63 -119 -95
-180 -32 -60 -77 -146 -100 -190 -47 -88 -143 -275 -285 -550 -114 -223 -551
-1095 -653 -1305 -194 -400 -267 -552 -267 -555 0 -1 -38 -81 -84 -178 -47
-96 -95 -197 -107 -224 -12 -26 -48 -104 -80 -172 -33 -68 -59 -125 -59 -126
0 -2 -23 -52 -51 -111 -71 -153 -78 -168 -169 -369 -45 -99 -92 -202 -105
-230 -13 -27 -50 -111 -83 -185 -33 -74 -71 -160 -86 -191 -25 -55 -49 -109
-216 -494 -45 -104 -84 -192 -86 -194 -2 -2 -48 8 -101 23 -54 15 -105 29
-113 30 -31 8 -217 58 -266 72 -28 8 -60 16 -71 18 -18 4 -71 18 -328 86 -44
12 -88 24 -97 26 -58 13 -154 37 -333 83 -88 23 -169 43 -180 46 -27 5 -30 6
-265 64 -293 71 -382 92 -405 97 -11 2 -78 18 -148 35 -71 17 -136 32 -145 34
-10 1 -100 22 -202 45 -102 23 -198 44 -215 47 -16 2 -43 8 -60 13 -16 5 -46
12 -65 15 -19 3 -63 13 -97 21 -161 37 -191 43 -233 49 -24 4 -48 9 -52 11 -3
2 -30 9 -60 15 -29 6 -62 12 -73 14 -423 86 -797 160 -912 181 -13 2 -33 6
-45 8 -44 8 -143 26 -168 31 -14 3 -63 12 -110 20 -97 17 -129 23 -167 30 -16
3 -44 8 -63 11 -19 2 -48 8 -65 11 -16 3 -39 7 -50 8 -11 2 -49 8 -85 15 -211
37 -186 39 -208 -11 -11 -24 -70 -163 -131 -309 -61 -146 -115 -274 -120 -285
-5 -11 -16 -38 -26 -60 -9 -22 -20 -49 -25 -60 -13 -31 -152 -374 -210 -520
-29 -71 -58 -144 -66 -162 -8 -17 -14 -34 -14 -37 0 -3 -11 -30 -25 -60 -14
-30 -25 -60 -25 -65 0 -6 -4 -19 -10 -29 -10 -17 -16 -32 -152 -382 -87 -225
-415 -1096 -470 -1250 -11 -30 -24 -64 -28 -75 -5 -11 -13 -33 -18 -50 -6 -16
-24 -68 -42 -115 -17 -47 -33 -93 -35 -103 -2 -9 -7 -21 -10 -27 -5 -8 -84
-229 -120 -335 -7 -22 -43 -125 -80 -230 -91 -262 -408 -1211 -495 -1485 -39
-124 -85 -268 -102 -320 -17 -52 -31 -99 -32 -105 -2 -5 -10 -35 -20 -65 -10
-30 -26 -82 -36 -115 -10 -33 -46 -150 -80 -260 -33 -110 -78 -258 -99 -330
-21 -71 -60 -202 -86 -290 -101 -341 -155 -538 -150 -543 3 -4 98 -26 305 -72
80 -18 179 -40 220 -51 41 -10 86 -20 100 -22 14 -3 43 -10 65 -15 22 -6 51
-13 65 -16 14 -2 90 -20 170 -40 156 -38 356 -85 380 -91 8 -2 44 -11 80 -20
36 -9 72 -18 80 -20 92 -19 1002 -254 1375 -355 83 -23 182 -49 220 -60 39
-10 120 -32 180 -49 61 -17 119 -33 130 -36 28 -7 149 -41 450 -128 409 -119
598 -174 870 -257 94 -29 184 -56 200 -60 54 -15 259 -80 286 -91 l27 -10 -19
-57 c-27 -85 -251 -846 -264 -902 -2 -8 -24 -87 -50 -175 -25 -88 -56 -198
-69 -245 -30 -107 -54 -196 -106 -385 -51 -183 -94 -340 -125 -460 -13 -49
-30 -115 -39 -145 -12 -44 -65 -245 -81 -310 -2 -8 -14 -53 -26 -100 -11 -47
-23 -92 -25 -100 -60 -236 -156 -615 -159 -630 -2 -8 -8 -35 -15 -60 -7 -25
-14 -52 -15 -60 -2 -8 -11 -44 -20 -80 -8 -36 -17 -72 -19 -80 -3 -8 -16 -64
-30 -125 -15 -60 -28 -117 -31 -125 -9 -37 -129 -547 -150 -640 -2 -8 -10 -45
-19 -81 -8 -37 -17 -78 -20 -90 -2 -13 -13 -62 -24 -109 -11 -47 -30 -128 -41
-180 -11 -52 -39 -176 -61 -275 -22 -99 -43 -193 -46 -210 -3 -16 -10 -50 -15
-75 -6 -25 -13 -56 -15 -70 -3 -14 -14 -63 -24 -110 -10 -47 -21 -96 -24 -110
-2 -14 -14 -70 -25 -126 -12 -55 -23 -109 -25 -120 -3 -10 -9 -39 -15 -64 -5
-25 -12 -56 -14 -70 -3 -14 -28 -137 -55 -275 -28 -137 -54 -265 -57 -283 -3
-18 -16 -88 -30 -155 -13 -67 -26 -134 -29 -150 -3 -15 -7 -35 -10 -45 -3 -9
-7 -33 -10 -52 -3 -19 -8 -48 -11 -65 -13 -69 -37 -194 -47 -245 -6 -30 -12
-62 -13 -70 -2 -8 -5 -28 -8 -45 -4 -16 -9 -46 -12 -65 -3 -19 -24 -132 -45
-250 -52 -285 -49 -270 -56 -310 -3 -19 -11 -66 -19 -105 -7 -38 -16 -88 -20
-110 -3 -22 -12 -78 -20 -125 -8 -47 -17 -98 -20 -115 -3 -16 -8 -46 -11 -65
-9 -52 -12 -71 -18 -110 -3 -19 -8 -46 -11 -60 -3 -14 -8 -45 -11 -70 -3 -25
-7 -52 -10 -61 -3 -9 -7 -34 -9 -55 -3 -22 -9 -61 -14 -89 -6 -27 -19 -111
-31 -185 -11 -74 -28 -178 -36 -230 -9 -52 -17 -106 -19 -120 -6 -35 -23 -147
-29 -192 -3 -21 -9 -55 -12 -75 -3 -21 -10 -67 -15 -103 -6 -36 -13 -83 -16
-105 -3 -22 -6 -44 -7 -50 -1 -7 1759 -11 5257 -13 l5257 -2 1 27 c0 16 2 35
3 43 2 8 7 56 10 105 4 50 9 104 11 120 5 42 16 160 21 225 2 30 6 71 9 90 2
19 7 67 10 105 4 39 8 88 11 110 3 22 7 65 10 95 2 30 6 71 9 90 6 48 15 145
20 202 1 25 6 59 9 75 3 15 8 60 11 98 7 79 14 143 21 195 7 49 12 95 19 169
6 62 10 95 20 171 2 19 7 60 10 90 4 30 8 66 10 80 2 14 6 50 10 80 17 145 22
190 35 285 5 39 12 89 15 113 3 23 7 59 10 80 2 20 9 73 14 117 6 44 13 99 16
123 3 24 7 53 10 65 2 12 7 45 10 72 3 28 10 77 15 110 5 33 11 83 15 110 3
28 8 64 10 80 3 17 7 48 10 70 3 22 10 67 15 100 5 33 12 87 15 120 4 33 8 62
10 65 2 3 7 33 10 65 4 33 9 62 10 65 3 5 10 55 30 197 3 29 12 78 20 123 3
14 7 48 11 75 3 28 8 59 10 70 2 10 6 37 9 60 6 38 16 105 31 185 3 19 7 47 9
62 2 15 8 53 14 85 5 32 13 76 16 98 4 33 24 153 39 240 9 47 16 92 21 120 3
17 9 55 15 85 5 30 12 71 15 90 5 31 17 103 30 180 3 14 9 50 15 80 5 30 12
69 15 85 13 74 16 94 30 165 8 41 23 127 35 190 19 107 51 275 117 625 15 77
28 142 29 144 3 3 844 -416 1045 -522 59 -30 115 -60 125 -65 11 -5 28 -13 39
-19 11 -5 63 -32 115 -60 136 -72 267 -141 405 -213 106 -56 150 -79 221 -118
10 -6 69 -38 129 -70 61 -33 142 -76 180 -97 96 -51 359 -196 430 -235 17 -9
57 -32 90 -50 33 -18 111 -61 172 -96 62 -35 117 -64 123 -64 5 0 10 -4 10
-10 0 -5 4 -10 9 -10 8 0 144 -75 401 -222 19 -11 69 -40 110 -63 41 -23 137
-79 214 -124 76 -44 140 -81 142 -81 2 0 28 -16 58 -35 30 -19 57 -35 60 -35
3 0 29 -15 58 -33 29 -19 73 -45 98 -59 323 -179 2216 -1352 2228 -1380 2 -5
7 -8 12 -8 5 0 35 -17 67 -38 32 -22 126 -83 208 -137 314 -205 1144 -761
1155 -774 3 -3 13 -10 22 -16 18 -10 179 -121 328 -226 47 -33 114 -80 150
-105 88 -61 169 -118 268 -189 46 -33 94 -67 105 -75 95 -65 821 -589 862
-622 6 -5 152 -114 325 -242 173 -129 320 -238 325 -243 9 -8 275 -211 349
-266 16 -12 70 -55 120 -94 l91 -73 5258 0 5259 0 -7 53 c-3 28 -15 108 -26
177 -10 69 -21 141 -23 160 -4 33 -21 141 -30 185 -2 11 -7 42 -10 68 -4 27
-9 56 -11 65 -1 10 -6 40 -9 67 -4 28 -9 57 -11 65 -3 8 -7 32 -9 52 -3 21 -8
53 -11 70 -19 117 -33 202 -40 253 -4 22 -8 51 -11 65 -2 14 -7 41 -10 60 -2
19 -11 69 -19 110 -8 41 -16 91 -19 110 -3 19 -19 116 -36 215 -29 172 -34
198 -45 255 -2 14 -11 63 -19 110 -20 112 -25 136 -36 195 -5 28 -19 102 -30
165 -25 144 -37 208 -75 410 -47 249 -70 363 -86 445 -11 55 -22 109 -24 120
-2 11 -12 65 -23 120 -12 55 -23 111 -25 125 -3 14 -14 70 -26 125 -11 55 -22
111 -25 125 -3 14 -10 50 -16 80 -6 30 -13 66 -16 80 -2 14 -15 75 -29 135
-13 61 -26 121 -28 135 -9 46 -38 184 -58 275 -12 50 -23 104 -25 120 -3 17
-7 36 -10 44 -4 11 -25 112 -39 184 -2 9 -6 20 -8 25 -3 4 -8 23 -11 42 -8 51
-65 311 -113 510 -8 36 -17 76 -20 90 -2 14 -9 43 -15 65 -5 22 -12 51 -15 65
-2 14 -10 50 -18 81 -8 30 -16 64 -18 75 -2 10 -7 30 -10 44 -4 14 -27 113
-52 220 -26 107 -64 269 -87 360 -22 91 -41 172 -43 180 -2 8 -44 177 -94 375
-51 198 -94 368 -96 377 -12 52 -83 327 -126 487 -27 101 -51 194 -54 205 -6
27 -11 47 -90 331 -60 219 -103 374 -109 400 -1 6 -10 36 -19 67 -10 32 -33
113 -51 180 -116 417 -391 1346 -537 1813 -115 369 -143 455 -176 555 -19 58
-36 112 -38 120 -9 40 -351 1073 -478 1440 -150 435 -258 742 -273 777 -8 17
-14 34 -14 38 0 17 -546 1495 -597 1615 -3 8 -7 17 -8 20 -2 6 -11 27 -32 80
-8 19 -30 77 -49 128 -18 51 -40 107 -48 125 -7 18 -82 205 -165 417 -84 212
-158 399 -166 415 -7 17 -40 98 -73 180 -58 144 -283 689 -302 730 -5 11 -48
112 -96 225 -47 113 -92 219 -99 235 -22 48 -114 262 -160 370 -24 55 -53 123
-66 150 -13 28 -24 55 -25 60 -2 9 -148 336 -217 488 -15 32 -27 59 -27 61 0
3 -15 37 -34 78 -19 40 -46 100 -61 133 -158 349 -319 698 -412 895 -25 52
-58 122 -73 155 -15 33 -52 112 -83 175 -30 63 -79 167 -109 230 -31 63 -86
178 -123 255 -106 220 -643 1298 -763 1530 -147 286 -276 533 -328 633 -24 45
-65 121 -90 170 -26 48 -61 114 -79 147 -18 33 -56 105 -85 160 -63 119 -114
215 -145 270 -12 22 -42 76 -65 120 -24 44 -78 143 -120 220 -42 77 -94 172
-115 210 -21 39 -67 121 -102 182 -34 62 -63 116 -63 120 0 3 -6 14 -14 22 -7
9 -29 45 -48 81 -19 36 -44 81 -55 100 -11 19 -62 109 -113 200 -105 187 -166
293 -189 330 -8 14 -16 27 -16 30 0 3 -26 48 -56 100 -31 52 -136 232 -234
400 -311 534 -882 1477 -1164 1923 -86 136 -138 218 -312 490 -101 159 -197
309 -214 335 -61 97 -206 319 -444 677 -135 204 -248 375 -250 380 -2 6 -7 12
-11 15 -3 3 -16 22 -29 43 l-23 37 -4784 0 -4784 0 -253 -382z m5093 -8083
c12 -27 56 -119 96 -203 41 -85 74 -155 74 -157 0 -2 23 -52 51 -112 28 -59
68 -146 89 -193 21 -47 53 -119 72 -160 62 -133 90 -193 128 -280 21 -47 49
-110 63 -140 49 -110 177 -400 272 -620 54 -124 105 -243 115 -265 165 -374
585 -1401 804 -1970 54 -137 103 -264 111 -280 12 -27 43 -107 91 -235 28 -77
74 -198 97 -260 105 -278 197 -530 331 -910 42 -118 81 -224 86 -235 5 -11 13
-36 19 -55 5 -19 17 -55 27 -80 81 -217 404 -1186 572 -1715 180 -565 414
-1336 408 -1342 -1 -2 -92 46 -202 105 -109 60 -239 130 -289 157 -49 26 -117
62 -150 80 -33 18 -103 55 -155 82 -52 28 -151 80 -220 116 -341 179 -585 303
-1145 582 -335 166 -673 332 -750 368 -77 36 -207 97 -290 137 -82 40 -175 83
-205 97 -30 14 -89 41 -130 60 -41 20 -108 51 -147 69 -40 19 -108 50 -150 70
-129 60 -166 77 -493 224 -173 78 -335 151 -360 162 -72 33 -370 163 -570 249
-102 44 -198 86 -215 94 -28 13 -284 122 -578 245 -113 47 -128 56 -124 74 5
22 83 247 140 406 19 52 58 160 86 240 29 80 56 154 61 165 4 11 21 56 36 100
15 44 33 94 40 110 7 17 38 100 69 185 57 156 85 231 259 685 157 412 406
1043 446 1130 11 24 20 46 20 49 0 5 212 523 230 561 5 11 86 202 181 425 94
223 187 438 205 478 19 40 34 74 34 77 0 2 13 34 30 69 16 36 40 91 54 123 13
32 38 87 54 123 17 36 57 126 90 200 66 149 102 230 137 305 13 28 60 131 105
230 45 99 109 236 141 304 33 68 59 125 59 127 0 2 30 65 66 141 l65 137 18
-39 c10 -22 28 -62 41 -90z"/>
</g>
</svg>
